<?xml version="1.0" encoding="utf-8"?>
<!-- Generator: Adobe Illustrator 23.0.1, SVG Export Plug-In . SVG Version: 6.00 Build 0)  -->
<svg version="1.0" id="Layer_1" xmlns="http://www.w3.org/2000/svg" xmlns:xlink="http://www.w3.org/1999/xlink" x="0px" y="0px"
	 viewBox="0 0 564.41 134.96" style="enable-background:new 0 0 564.41 134.96;" xml:space="preserve">
<style type="text/css">
	.st0{fill:#FDFEFE;}
</style>
<g>
	<path class="st0" d="M134.74,56.14l-3.51-9.62c8.7-3.97,17.25-6.56,28.7-6.56c21.52,0,33.58,10.99,33.58,31.75v48.24h-11.3v-11.91
		c-5.49,7.17-14.65,13.59-28.54,13.59c-14.65,0-29.46-8.25-29.46-24.73c0-16.79,13.74-25.64,33.73-25.64
		c10.08,0,17.25,1.37,24.27,3.36v-2.75c0-14.2-8.7-21.52-23.51-21.52C149.39,50.34,142.07,52.78,134.74,56.14 M136.11,96.43
		c0,10.08,9.16,15.88,19.84,15.88c14.5,0,26.41-8.85,26.41-21.37v-7.63c-5.8-1.68-13.59-3.36-23.2-3.36
		C144.36,79.95,136.11,86.36,136.11,96.43 M212.89,119.94h-11.75V41.02h11.75v20.61c5.8-13.13,17.25-22.59,32.21-21.98v12.67h-0.92
		c-17.25,0-31.29,12.36-31.29,36.18V119.94z M280.67,121.77c-23.05,0-40.45-18.78-40.45-41.06c0-22.44,17.4-41.37,40.45-41.37
		c14.96,0,24.27,6.26,31.6,14.04l-7.79,8.24c-6.26-6.56-13.28-11.91-23.96-11.91c-16.03,0-28.24,13.59-28.24,30.68
		c0,17.25,12.52,30.83,29,30.83c10.08,0,17.86-5.04,24.12-11.75l7.48,7.02C304.94,115.36,295.48,121.77,280.67,121.77
		 M329.67,119.94h-11.75V8.51h11.75v46.25c5.19-8.55,13.43-15.42,27.02-15.42c19.08,0,30.22,12.82,30.22,31.6v49h-11.75v-46.1
		c0-14.65-7.94-23.81-21.83-23.81c-13.58,0-23.66,9.92-23.66,24.73V119.94z M432.4,111.55c10.84,0,18.47-4.43,24.88-11.14l7.33,6.56
		c-7.94,8.85-17.55,14.81-32.51,14.81c-21.68,0-39.38-16.64-39.38-41.21c0-22.9,16.03-41.21,37.86-41.21
		c23.35,0,36.79,18.62,36.79,41.83c0,1.07,0,2.29-0.15,3.66h-62.59C406.3,101.93,418.51,111.55,432.4,111.55 M455.45,76.13
		c-1.22-14.35-9.46-26.87-25.19-26.87c-13.74,0-24.12,11.45-25.64,26.87H455.45z M499.71,121.47c-11.29,0-23.81-4.43-32.67-11.6
		l5.95-8.4c8.55,6.41,18.01,10.08,27.32,10.08c9.46,0,16.33-4.88,16.33-12.52v-0.31c0-7.94-9.31-10.99-19.69-13.89
		c-12.37-3.51-26.1-7.78-26.1-22.29v-0.3c0-13.59,11.3-22.59,26.87-22.59c9.62,0,20.3,3.36,28.39,8.7l-5.34,8.85
		c-7.33-4.73-15.72-7.63-23.36-7.63c-9.31,0-15.26,4.88-15.26,11.45v0.31c0,7.48,9.77,10.38,20.3,13.58
		c12.21,3.66,25.34,8.4,25.34,22.59v0.31C527.8,112.77,515.44,121.47,499.71,121.47 M92.07,57.48c0-4.21,3.43-7.64,7.64-7.64
		c1.25,0,2.43,0.31,3.48,0.85c-1.83-4.3-5.36-7.7-9.73-9.39c-6.49,2.52-11.12,8.82-11.12,16.19V82.5h22.24v-4.88H92.07V57.48z
		 M67.05,57.48c0-11.11,9.04-20.15,20.15-20.15c2.18,0,4.28,0.35,6.25,1c0.74,0.24,1.47,0.53,2.17,0.85
		c0.69,0.32,1.36,0.67,2.01,1.06c0.98,0.6,1.9,1.28,2.77,2.03c-0.43-0.73-0.9-1.44-1.39-2.13c-0.32-0.46-0.66-0.9-1.01-1.34
		c-0.35-0.43-0.71-0.86-1.08-1.28c-4.14-4.61-9.69-7.92-15.96-9.26c-13.48,2.88-23.62,14.88-23.62,29.21v37.52h47.25v-4.86H67.05
		V57.48z M42.04,57.48c0-18.01,14.65-32.66,32.66-32.66c2.14,0,4.23,0.21,6.25,0.61c1.22,0.24,2.41,0.54,3.57,0.91
		c1.16,0.37,2.28,0.8,3.38,1.28c3.63,1.61,6.92,3.86,9.71,6.62c-1.44-2.19-3.08-4.23-4.89-6.12c-0.55-0.57-1.11-1.13-1.69-1.67
		c-0.57-0.54-1.16-1.06-1.76-1.56c-5.83-4.85-12.98-8.17-20.82-9.34c-20.42,3.03-36.13,20.67-36.13,41.92v50.09l72.26,0v-4.93H42.04
		V57.48z M117.04,55.94c-0.01-0.21-0.01-0.43-0.02-0.64c-0.08-2.13-0.28-4.23-0.6-6.3c-0.2-1.28-0.45-2.54-0.74-3.79
		c-0.1-0.42-0.18-0.84-0.29-1.26c-0.49-1.92-1.08-3.8-1.77-5.64c-0.41-1.11-0.87-2.19-1.35-3.26c-1.38-3.07-3.03-5.99-4.92-8.73
		C97.43,11.99,80.89,2.58,62.19,2.58C31.92,2.58,7.3,27.21,7.3,57.48v62.58h109.79V57.48C117.08,56.96,117.06,56.45,117.04,55.94
		 M107.35,115.15H17.02V57.48c0-24.9,20.26-45.17,45.17-45.17c2.12,0,4.21,0.16,6.25,0.44c1.7,0.24,3.37,0.56,5.01,0.98
		c1.61,0.42,3.19,0.93,4.73,1.51c6.03,2.29,11.45,5.83,15.94,10.32c0.61,0.61,1.19,1.24,1.76,1.88c0.58,0.65,1.14,1.33,1.69,2.01
		c1.98,2.5,3.71,5.21,5.14,8.09c0.25,0.51,0.49,1.02,0.72,1.54c0.24,0.53,0.47,1.06,0.68,1.6c2.09,5.19,3.25,10.86,3.25,16.79
		V115.15z"/>
	<g>
		<path class="st0" d="M547.52,93.64c7.33,0,13.26,5.94,13.26,13.27c0,7.32-5.93,13.26-13.26,13.26c-7.34,0-13.27-5.93-13.27-13.26
			C534.25,99.58,540.18,93.64,547.52,93.64z M547.52,118.18c6.26,0,11.04-4.9,11.04-11.31c0-6.34-4.78-11.24-11.04-11.24
			c-6.27,0-11.06,4.9-11.06,11.24C536.46,113.28,541.25,118.18,547.52,118.18z M544.45,114.64h-2.19V99.17h6.43
			c3.25,0,4.88,1.45,4.88,4.39c0,2.77-1.73,3.95-4.02,4.2l4.5,6.89h-2.51l-4.2-6.81h-2.88V114.64z M547.23,106.05
			c2.27,0,4.12-0.18,4.12-2.61c0-2.06-1.43-2.5-3.54-2.5h-3.36v5.11H547.23z"/>
	</g>
</g>
</svg>
