<svg xmlns="http://www.w3.org/2000/svg" id="Layer_1" x="0" y="0" version="1.1" viewBox="0 0 736.6 168.2" xml:space="preserve"><path fill="#77a942" d="M0 0v56l28.3-14 27.8 14.1L84.3 42l28 14 27.9-14 28 14V0H0"/><path fill="#b62126" d="M64.2 108.6c-4.2 4.6-11.4 4.6-15.6 0l-2-2.4a24.5 24.5 0 00-36.4 0l-2 2.4C6 111 3 112.2.1 112.1L0 70l28.3-14 27.8 14.1L84.2 56l28 14 28-14 27.9 14v42.1c-2.8-.1-5.5-1.2-7.5-3.5l-2-2.4a24.5 24.5 0 00-36.4 0l-2 2.4c-4.2 4.6-11.4 4.6-15.6 0l-2-2.4a24.5 24.5 0 00-36.4 0l-2 2.4"/><path fill="#32a2db" d="M168.1 166.4a77.9 77.9 0 01-16.8 1.8c-3.2 0-5.6-2.5-5.6-5.6s2.6-5.6 5.7-5.6h.7c.2 0 .3-.1.3-.3 0-.1-.1-.2-.1-.3a18.53 18.53 0 00-17.2.9 78.05 78.05 0 01-39.8 10.8c-3.2 0-5.6-2.5-5.6-5.6s2.6-5.6 5.7-5.6h.7c.2 0 .3-.1.3-.3 0-.1-.1-.2-.1-.3-2.4-1.1-5-1.7-7.8-1.7-3.4 0-6.7.9-9.4 2.6A78.05 78.05 0 0139.3 168c-3.2 0-5.6-2.5-5.6-5.6s2.6-5.6 5.7-5.6h.7c.2 0 .3-.1.3-.3 0-.1-.1-.2-.1-.3-2.4-1.1-5-1.7-7.8-1.7-3.4 0-6.7.9-9.4 2.6-7 4.2-14.8 7.2-23 9v-40.2c6.8.1 13.6-2.6 18.6-8.1l2-2.4c4.2-4.6 11.4-4.6 15.6 0l2 2.4a24.5 24.5 0 0036.4 0l2-2.4c4.2-4.6 11.4-4.6 15.6 0l2 2.4a24.5 24.5 0 0036.4 0l2-2.4c4.2-4.6 11.4-4.6 15.6 0l2 2.4c4.8 5.3 11.3 8 17.9 8.1l-.1 40.5"/><path d="M215.6 56.1h4v25.2h30.1V56.1h3.9v56.1h-3.9V84.7h-30.1v27.5h-4V56.1M266.4 71.3h3.8v40.9h-3.8zM279.6 107.6l2.2-2.8c3.5 2.9 7.2 5.2 13.1 5.2 6.4 0 9.7-3.7 9.7-8.1 0-5.1-5.3-7.3-10-9-6.2-2.2-13.1-4.7-13.1-11.7 0-6 4.7-10.9 13.2-10.9 4.4 0 8.7 1.8 11.7 4.3l-2 2.6c-2.7-2-5.6-3.7-9.8-3.7-6.3 0-9.2 3.7-9.2 7.4 0 4.7 4.8 6.5 9.6 8.3 6.4 2.4 13.4 4.5 13.4 12.5 0 6.1-5 11.5-13.8 11.5-6 0-11.3-2.5-15-5.6M319.7 100.9V74.6h-6.4v-3.2h6.5V59.6h3.8v11.8h11.9v3.2h-11.9v26.7c0 5.2 1.3 8.7 6.9 8.7 1.5 0 3.7-.6 5.1-1.3l1 3.1c-2.4.9-5 1.5-6.7 1.5-7.9-.1-10.2-5.1-10.2-12.4M340.2 91.9c0-13.7 8.5-21.6 18.4-21.6S377 78.1 377 91.9c0 13.5-8.5 21.4-18.4 21.4-9.9-.1-18.4-7.9-18.4-21.4m32.9 0c0-10.8-6.2-18.2-14.5-18.2s-14.4 7.4-14.4 18.2c0 10.7 6.1 18.1 14.4 18.1s14.5-7.4 14.5-18.1zM385.3 71.3h3.6v7.6h.3c2.7-5 6.7-8.6 11.6-8.6 1.5 0 2.7.2 4.1.9l-.9 3.4a9.2 9.2 0 00-3.8-.7c-3.7 0-8 2.8-11.2 10.5v27.9h-3.8l.1-41M425.1 91.9c0-13.7 8.7-21.6 18.7-21.6 5.6 0 9.2 2.5 12 5l-2.2 2.6c-2.6-2.5-5.7-4.3-9.7-4.3-8.4 0-14.9 7.4-14.9 18.2 0 10.7 5.9 18.1 14.9 18.1 4.4 0 8.1-2.1 10.9-4.7l2 2.6c-3.5 3.1-7.9 5.4-13.1 5.4-10.6 0-18.6-7.8-18.6-21.3M486 56.1h30.8v3.4h-26.9v21.2h22.5v3.4h-22.5v24.7h27.7v3.4H486V56.1M564.1 120.6c0-3.6 2.3-7.2 6.1-9.9v-.3c-2-1.2-3.6-3.4-3.6-6.6 0-3.7 2.6-6.2 4.4-7.5V96c-2.6-2.2-5.1-6.3-5.1-11.2 0-8.4 6.4-14.4 14.4-14.4 2.2 0 4.1.5 5.4 1h13.9v3.2H590c2.6 2.3 4.5 6 4.5 10.3 0 8.4-6.2 14.4-14.3 14.4-2.3 0-4.9-.6-6.8-1.7-1.8 1.4-3.3 3.2-3.3 5.9 0 3 1.7 5.4 7.9 5.4h8.8c9.2 0 13.5 2.9 13.5 9.4 0 7.1-7.6 13.8-19.4 13.8-10.3-.2-16.8-4.6-16.8-11.5m32.4-2.1c0-4.5-3.3-6.2-9.5-6.2h-8.8c-.9 0-3-.2-5.1-.7-3.8 2.6-5.4 5.7-5.4 8.6 0 5.1 4.9 8.6 13.7 8.6 9.2 0 15.1-5.2 15.1-10.3zm-5.6-33.8c0-6.9-4.8-11.3-10.6-11.3s-10.7 4.3-10.7 11.3c0 6.9 4.9 11.5 10.7 11.5 5.7 0 10.6-4.6 10.6-11.5zM608.3 106.8V51h3.8v56.3c0 1.8.8 2.6 1.8 2.6.3 0 .7 0 1.5-.2l.7 3.1c-.8.3-1.5.4-2.7.4-3.4 0-5.1-2-5.1-6.4M623.1 102c0-9 8.2-13.4 26.5-15.4.1-6.2-1.6-13-9.7-13-5.5 0-10.2 2.7-13.1 4.8l-1.7-2.8c2.9-2 8.6-5.3 15.3-5.3 9.6 0 13 7 13 15.8v26.2h-3.6V107h-.3c-4.2 3.3-9.1 6.3-14.5 6.3-6.6-.1-11.9-3.6-11.9-11.3m26.4 1.4V89.5c-16.9 2-22.6 5.9-22.6 12.4 0 5.9 4 8.2 8.7 8.2 4.7-.1 8.8-2.4 13.9-6.7zM270.7 62c0 1.4-1.1 2.5-2.5 2.5s-2.5-1.1-2.5-2.5 1.1-2.5 2.5-2.5 2.5 1.1 2.5 2.5M412.4 71.4h3.8v40.9h-3.8zM416.8 62c0 1.4-1.1 2.5-2.5 2.5s-2.5-1.1-2.5-2.5 1.1-2.5 2.5-2.5c1.4.1 2.5 1.2 2.5 2.5M681.3 70.3c-5.6 0-9.8 3.1-13.9 7.2h-.3v-6.2h-3.8v40.9h3.8V81.4c5-5.1 8.5-7.7 13.4-7.7 6.7 0 9.4 4.1 9.4 12.8v25.7h3.8V86c-.1-10.6-4-15.7-12.4-15.7M544.6 70.3c-5.6 0-9.8 3.1-13.9 7.2h-.3v-6.2h-3.8v40.9h3.8V81.4c5-5.1 8.5-7.7 13.4-7.7 6.7 0 9.4 4.1 9.4 12.8v25.7h3.8V86c0-10.6-3.9-15.7-12.4-15.7M732.9 51v24.1h-.2c-3.9-3-7.2-4.7-12-4.7-9.7 0-18.2 8.4-18.2 21.6 0 13.8 6.7 21.4 17 21.4 5.5 0 10-3 13.3-6.3h.3v5.3h3.6V51h-3.8m0 52.2c-4.4 4.3-8.4 6.7-12.9 6.7-8.7 0-13.5-7.2-13.5-18.1 0-10.3 6.2-18.2 14.4-18.2 4 0 7.6 1.4 11.9 5.3l.1 24.3z" class="st3"/></svg>